<svg xmlns="http://www.w3.org/2000/svg" width="200" height="80" viewBox="0 0 200 80">
  <g fill="none" fill-rule="evenodd">
    <path fill="#8B4513" d="M40,15 C51.0457,15 60,23.9543 60,35 C60,46.0457 51.0457,55 40,55 C28.9543,55 20,46.0457 20,35 C20,23.9543 28.9543,15 40,15 Z M40,20 C31.7157,20 25,26.7157 25,35 C25,43.2843 31.7157,50 40,50 C48.2843,50 55,43.2843 55,35 C55,26.7157 48.2843,20 40,20 Z"/>
    <path fill="#DAA520" d="M40,25 C45.5228,25 50,29.4772 50,35 C50,40.5228 45.5228,45 40,45 C34.4772,45 30,40.5228 30,35 C30,29.4772 34.4772,25 40,25 Z"/>
    <path fill="#8B4513" d="M75,25 L85,25 C95,25 100,30 100,35 C100,40 95,45 85,45 L75,45 L75,25 Z M82,32 L82,38 L85,38 C87,38 88,37 88,35 C88,33 87,32 85,32 L82,32 Z"/>
    <path fill="#8B4513" d="M110,25 L125,25 C135,25 140,30 140,35 C140,40 135,45 125,45 L110,45 L110,25 Z M117,32 L117,38 L125,38 C127,38 128,37 128,35 C128,33 127,32 125,32 L117,32 Z"/>
    <path fill="#DAA520" d="M145,25 L155,25 L155,45 L145,45 L145,25 Z"/>
    <path fill="#8B4513" d="M165,25 L180,25 L180,32 L172,32 L172,45 L165,45 L165,25 Z"/>
    <path stroke="#8B4513" stroke-width="2" d="M10,60 L190,60"/>
    <text font-family="Arial" font-size="10" fill="#8B4513" x="55" y="70">
      DÉMÉNAGEMENT
    </text>
  </g>
</svg>
